# xmcd CD database file
#
# Track frame offsets:
#	150
#	33250
#	94190
#	157235
#	197632
#	236485
#
# Disc length: 4114 seconds
#
# Revision: 0
# Processed by: cddbd v1.5.1PL2 Copyright (c) Steve Scherf et al.
# Submitted via: CDex 1.51
#
DISCID=47101006
DTITLE=Satoko Fujii - Maru
DYEAR=2005
DGENRE=Jazz
TTITLE0=Slip-On
TTITLE1=Pakonya
TTITLE2=Maru
TTITLE3=Yattoko Mittoko
TTITLE4=Bennie's Waltz
TTITLE5=Sakuradori Sen
EXTD=YEAR: 2005
EXTT0=
EXTT1=
EXTT2=
EXTT3=
EXTT4=
EXTT5=
PLAYORDER=
